<svg width="384" height="500" viewBox="0 0 384 500" fill="none" xmlns="http://www.w3.org/2000/svg">
<path d="M204 0C101.4 0 0 68.4 0 179.1C0 249.5 39.6 289.5 63.6 289.5C73.5 289.5 79.2 261.9 79.2 254.1C79.2 244.8 55.5 225 55.5 186.3C55.5 105.9 116.7 48.9 195.9 48.9C264 48.9 314.4 87.6 314.4 158.7C314.4 211.8 293.1 311.4 224.1 311.4C199.2 311.4 177.9 293.4 177.9 267.6C177.9 229.8 204.3 193.2 204.3 154.2C204.3 88 110.4 100 110.4 180C110.4 196.8 112.5 215.4 120 230.7C106.2 290.1 78 378.6 78 439.8C78 458.7 80.7 477.3 82.5 496.2C85.9 500 84.2 499.6 89.4 497.7C139.8 428.7 138 415.2 160.8 324.9C173.1 348.3 204.9 360.9 230.1 360.9C336.3 360.9 384 257.4 384 164.1C384 64.8 298.2 0 204 0Z" fill="black"/>
</svg>
